<svg width="200" height="200" viewBox="0 0 200 200" fill="none" xmlns="http://www.w3.org/2000/svg">
  <!-- 背景圆圈 -->
  <circle cx="100" cy="100" r="95" fill="#4A90E2" fill-opacity="0.1" stroke="#4A90E2" stroke-width="2"/>
  
  <!-- 宝宝脸部轮廓 -->
  <circle cx="100" cy="90" r="45" fill="#FFF8E1" stroke="#4A90E2" stroke-width="2"/>
  
  <!-- 眼睛 -->
  <circle cx="88" cy="82" r="4" fill="#4A90E2" fill-opacity="0.3"/>
  <circle cx="112" cy="82" r="4" fill="#4A90E2" fill-opacity="0.3"/>
  <circle cx="88" cy="81" r="2" fill="#333"/>
  <circle cx="112" cy="81" r="2" fill="#333"/>
  
  <!-- 眼睫毛 -->
  <path d="M84 78C85 76 87 76 89 78" stroke="#4A90E2" stroke-width="1.5" fill="none" stroke-linecap="round"/>
  <path d="M108 78C109 76 111 76 113 78" stroke="#4A90E2" stroke-width="1.5" fill="none" stroke-linecap="round"/>
  
  <!-- 鼻子 -->
  <ellipse cx="100" cy="90" rx="2" ry="3" fill="#4A90E2" fill-opacity="0.2"/>
  
  <!-- 嘴巴 -->
  <path d="M94 98C96 102 98 103 100 103C102 103 104 102 106 98" stroke="#4A90E2" stroke-width="2" fill="none" stroke-linecap="round"/>
  
  <!-- 脸颊红晕 -->
  <circle cx="75" cy="95" r="8" fill="#4A90E2" fill-opacity="0.1"/>
  <circle cx="125" cy="95" r="8" fill="#4A90E2" fill-opacity="0.1"/>
  
  <!-- 头发 (男宝宝短发) -->
  <path d="M65 72C70 62 85 57 100 57C115 57 130 62 135 72" stroke="#8D6E63" stroke-width="4" fill="none" stroke-linecap="round"/>
  <circle cx="85" cy="67" r="2" fill="#8D6E63" fill-opacity="0.6"/>
  <circle cx="100" cy="62" r="3" fill="#8D6E63" fill-opacity="0.6"/>
  <circle cx="115" cy="67" r="2" fill="#8D6E63" fill-opacity="0.6"/>
  
  <!-- 小领结装饰 -->
  <path d="M95 115L100 120L105 115L100 125Z" fill="#4A90E2" fill-opacity="0.7"/>
  <rect x="98" y="117" width="4" height="6" fill="#4A90E2"/>
</svg>