<svg width="200" height="200" viewBox="0 0 200 200" fill="none" xmlns="http://www.w3.org/2000/svg">
  <!-- 背景圆圈 -->
  <circle cx="100" cy="100" r="95" fill="#FFB74D" fill-opacity="0.1" stroke="#FFB74D" stroke-width="2"/>
  
  <!-- 宝宝脸部轮廓 -->
  <circle cx="100" cy="90" r="45" fill="#FFF8E1" stroke="#FFB74D" stroke-width="2"/>
  
  <!-- 眼睛 -->
  <circle cx="88" cy="82" r="4" fill="#FF8A65"/>
  <circle cx="112" cy="82" r="4" fill="#FF8A65"/>
  <circle cx="88" cy="81" r="2" fill="#333"/>
  <circle cx="112" cy="81" r="2" fill="#333"/>
  
  <!-- 眼睫毛 -->
  <path d="M84 78C85 76 87 76 89 78" stroke="#FFB74D" stroke-width="1.5" fill="none" stroke-linecap="round"/>
  <path d="M108 78C109 76 111 76 113 78" stroke="#FFB74D" stroke-width="1.5" fill="none" stroke-linecap="round"/>
  
  <!-- 鼻子 -->
  <ellipse cx="100" cy="90" rx="2" ry="3" fill="#FFB74D" fill-opacity="0.3"/>
  
  <!-- 嘴巴 -->
  <path d="M94 98C96 102 98 103 100 103C102 103 104 102 106 98" stroke="#FFB74D" stroke-width="2" fill="none" stroke-linecap="round"/>
  
  <!-- 脸颊红晕 -->
  <circle cx="75" cy="95" r="8" fill="#FF8A65" fill-opacity="0.2"/>
  <circle cx="125" cy="95" r="8" fill="#FF8A65" fill-opacity="0.2"/>
  
  <!-- 头发 -->
  <path d="M65 70C70 60 85 55 100 55C115 55 130 60 135 70" stroke="#D4A574" stroke-width="3" fill="none" stroke-linecap="round"/>
  <circle cx="80" cy="65" r="3" fill="#D4A574" fill-opacity="0.6"/>
  <circle cx="100" cy="60" r="4" fill="#D4A574" fill-opacity="0.6"/>
  <circle cx="120" cy="65" r="3" fill="#D4A574" fill-opacity="0.6"/>
  
  <!-- 小帽子或发带装饰 -->
  <ellipse cx="100" cy="62" rx="25" ry="5" fill="#FFB74D" fill-opacity="0.3"/>
</svg>