<svg width="200" height="200" viewBox="0 0 200 200" fill="none" xmlns="http://www.w3.org/2000/svg">
  <!-- 背景圆圈 -->
  <circle cx="100" cy="100" r="95" fill="#E91E63" fill-opacity="0.1" stroke="#E91E63" stroke-width="2"/>
  
  <!-- 宝宝脸部轮廓 -->
  <circle cx="100" cy="90" r="45" fill="#FFF8E1" stroke="#E91E63" stroke-width="2"/>
  
  <!-- 眼睛 -->
  <circle cx="88" cy="82" r="4" fill="#E91E63" fill-opacity="0.3"/>
  <circle cx="112" cy="82" r="4" fill="#E91E63" fill-opacity="0.3"/>
  <circle cx="88" cy="81" r="2" fill="#333"/>
  <circle cx="112" cy="81" r="2" fill="#333"/>
  
  <!-- 眼睫毛 (女宝宝更长) -->
  <path d="M84 78C85 75 87 75 89 78" stroke="#E91E63" stroke-width="1.5" fill="none" stroke-linecap="round"/>
  <path d="M108 78C109 75 111 75 113 78" stroke="#E91E63" stroke-width="1.5" fill="none" stroke-linecap="round"/>
  <path d="M86 76C87 74 88 74 88 76" stroke="#E91E63" stroke-width="1" fill="none" stroke-linecap="round"/>
  <path d="M110 76C111 74 112 74 112 76" stroke="#E91E63" stroke-width="1" fill="none" stroke-linecap="round"/>
  
  <!-- 鼻子 -->
  <ellipse cx="100" cy="90" rx="2" ry="3" fill="#E91E63" fill-opacity="0.2"/>
  
  <!-- 嘴巴 -->
  <path d="M94 98C96 102 98 103 100 103C102 103 104 102 106 98" stroke="#E91E63" stroke-width="2" fill="none" stroke-linecap="round"/>
  
  <!-- 脸颊红晕 -->
  <circle cx="75" cy="95" r="8" fill="#E91E63" fill-opacity="0.2"/>
  <circle cx="125" cy="95" r="8" fill="#E91E63" fill-opacity="0.2"/>
  
  <!-- 头发 (女宝宝长发) -->
  <path d="M60 75C65 65 80 60 100 60C120 65 135 65 140 75" stroke="#8D6E63" stroke-width="3" fill="none" stroke-linecap="round"/>
  <path d="M65 80C70 75 75 75 80 80" stroke="#8D6E63" stroke-width="2" fill="none" stroke-linecap="round"/>
  <path d="M120 80C125 75 130 75 135 80" stroke="#8D6E63" stroke-width="2" fill="none" stroke-linecap="round"/>
  
  <!-- 头花装饰 -->
  <circle cx="120" cy="70" r="6" fill="#E91E63" fill-opacity="0.7"/>
  <circle cx="118" cy="68" r="2" fill="#FFC107" fill-opacity="0.8"/>
  <circle cx="122" cy="68" r="2" fill="#FFC107" fill-opacity="0.8"/>
  <circle cx="118" cy="72" r="2" fill="#FFC107" fill-opacity="0.8"/>
  <circle cx="122" cy="72" r="2" fill="#FFC107" fill-opacity="0.8"/>
  <circle cx="120" cy="70" r="1" fill="#FFC107"/>
</svg>