<svg width="64" height="64" viewBox="0 0 64 64" fill="none" xmlns="http://www.w3.org/2000/svg">
  <!-- 尿布主体 -->
  <path d="M12 24C12 20 16 16 20 16H44C48 16 52 20 52 24V36C52 44 48 48 44 48H20C16 48 12 44 12 36V24Z" fill="#795548" fill-opacity="0.1" stroke="#795548" stroke-width="2"/>
  
  <!-- 尿布边缘装饰 -->
  <path d="M12 24C12 20 16 16 20 16H44C48 16 52 20 52 24" stroke="#795548" stroke-width="2" fill="none"/>
  <path d="M12 36C12 44 16 48 20 48H44C48 48 52 44 52 36" stroke="#795548" stroke-width="2" fill="none"/>
  
  <!-- 尿布胶带 -->
  <rect x="8" y="20" width="6" height="8" rx="3" fill="#795548" fill-opacity="0.4"/>
  <rect x="50" y="20" width="6" height="8" rx="3" fill="#795548" fill-opacity="0.4"/>
  <rect x="8" y="36" width="6" height="8" rx="3" fill="#795548" fill-opacity="0.4"/>
  <rect x="50" y="36" width="6" height="8" rx="3" fill="#795548" fill-opacity="0.4"/>
  
  <!-- 尿布内层纹理 -->
  <line x1="18" y1="22" x2="46" y2="22" stroke="#795548" stroke-width="1" stroke-opacity="0.3"/>
  <line x1="18" y1="26" x2="46" y2="26" stroke="#795548" stroke-width="1" stroke-opacity="0.3"/>
  <line x1="18" y1="30" x2="46" y2="30" stroke="#795548" stroke-width="1" stroke-opacity="0.3"/>
  <line x1="18" y1="34" x2="46" y2="34" stroke="#795548" stroke-width="1" stroke-opacity="0.3"/>
  <line x1="18" y1="38" x2="46" y2="38" stroke="#795548" stroke-width="1" stroke-opacity="0.3"/>
  <line x1="18" y1="42" x2="46" y2="42" stroke="#795548" stroke-width="1" stroke-opacity="0.3"/>
  
  <!-- 健康监测图标 -->
  <circle cx="32" cy="32" r="8" fill="none" stroke="#795548" stroke-width="1.5" stroke-dasharray="3 2"/>
  
  <!-- 颜色指示点 -->
  <circle cx="26" cy="28" r="2" fill="#FFC107" fill-opacity="0.7"/>
  <circle cx="32" cy="30" r="2" fill="#4CAF50" fill-opacity="0.7"/>
  <circle cx="38" cy="34" r="2" fill="#8D6E63" fill-opacity="0.7"/>
  <circle cx="30" cy="36" r="2" fill="#FF6F00" fill-opacity="0.7"/>
  
  <!-- 检查图标 -->
  <path d="M40 10L44 14L52 6" stroke="#4CAF50" stroke-width="2" fill="none" stroke-linecap="round" stroke-linejoin="round"/>
</svg>