<svg width="64" height="64" viewBox="0 0 64 64" fill="none" xmlns="http://www.w3.org/2000/svg">
  <!-- 碗 -->
  <ellipse cx="32" cy="45" rx="20" ry="8" fill="#9C27B0" fill-opacity="0.1" stroke="#9C27B0" stroke-width="2"/>
  <path d="M12 37C12 33 20 30 32 30C44 30 52 33 52 37V42C52 46 44 49 32 49C20 49 12 46 12 42V37Z" fill="#9C27B0" fill-opacity="0.2" stroke="#9C27B0" stroke-width="2"/>
  
  <!-- 辅食内容 -->
  <ellipse cx="32" cy="38" rx="16" ry="5" fill="#FFE082"/>
  <circle cx="28" cy="36" r="2" fill="#FF8A65" fill-opacity="0.8"/>
  <circle cx="36" cy="40" r="1.5" fill="#4CAF50" fill-opacity="0.8"/>
  <circle cx="30" cy="41" r="1" fill="#FF5722" fill-opacity="0.8"/>
  <circle cx="35" cy="37" r="1" fill="#FFC107" fill-opacity="0.8"/>
  
  <!-- 勺子 -->
  <ellipse cx="46" cy="20" rx="4" ry="6" fill="#9C27B0" fill-opacity="0.3" stroke="#9C27B0" stroke-width="2"/>
  <line x1="46" y1="26" x2="42" y2="35" stroke="#9C27B0" stroke-width="2" stroke-linecap="round"/>
  
  <!-- 勺子上的食物 -->
  <ellipse cx="46" cy="20" rx="2" ry="3" fill="#FFE082"/>
  <circle cx="45" cy="19" r="0.5" fill="#FF8A65"/>
  <circle cx="47" cy="21" r="0.5" fill="#4CAF50"/>
  
  <!-- 营养元素装饰 -->
  <circle cx="18" cy="18" r="3" fill="#4CAF50" fill-opacity="0.3"/>
  <text x="17" y="20" font-family="Arial" font-size="6" fill="#4CAF50" font-weight="bold">V</text>
  
  <circle cx="50" cy="12" r="3" fill="#FF9800" fill-opacity="0.3"/>
  <text x="49" y="14" font-family="Arial" font-size="6" fill="#FF9800" font-weight="bold">C</text>
  
  <!-- 蒸汽 -->
  <path d="M20 25C20 23 22 21 22 23C22 21 24 19 24 21" stroke="#9C27B0" stroke-width="1" fill="none" stroke-linecap="round" stroke-opacity="0.5"/>
  <path d="M40 25C40 23 42 21 42 23C42 21 44 19 44 21" stroke="#9C27B0" stroke-width="1" fill="none" stroke-linecap="round" stroke-opacity="0.5"/>
</svg>