<svg width="48" height="48" viewBox="0 0 48 48" xmlns="http://www.w3.org/2000/svg">
  <g fill="none" stroke="#4A90E2" stroke-width="2" stroke-linecap="round" stroke-linejoin="round">
    <!-- 奶瓶主体 -->
    <path d="M16 12 L16 36 Q16 40 20 40 L28 40 Q32 40 32 36 L32 12" fill="#4A90E2" fill-opacity="0.1"/>
    
    <!-- 奶瓶颈部 -->
    <rect x="18" y="8" width="12" height="4" fill="#4A90E2" fill-opacity="0.2"/>
    
    <!-- 奶嘴 -->
    <ellipse cx="24" cy="6" rx="3" ry="2" fill="#FFB74D"/>
    
    <!-- 刻度线 -->
    <line x1="14" y1="16" x2="16" y2="16" stroke="#4A90E2" stroke-width="1"/>
    <line x1="14" y1="20" x2="16" y2="20" stroke="#4A90E2" stroke-width="1"/>
    <line x1="14" y1="24" x2="16" y2="24" stroke="#4A90E2" stroke-width="1"/>
    <line x1="14" y1="28" x2="16" y2="28" stroke="#4A90E2" stroke-width="1"/>
    <line x1="14" y1="32" x2="16" y2="32" stroke="#4A90E2" stroke-width="1"/>
    
    <!-- 配方奶液体 -->
    <path d="M18 14 L18 34 Q18 36 20 36 L28 36 Q30 36 30 34 L30 14" fill="#FFF8E1"/>
    
    <!-- 奶粉罐 -->
    <rect x="34" y="20" width="8" height="12" rx="1" fill="#FF9800" fill-opacity="0.2"/>
    <ellipse cx="38" cy="20" rx="4" ry="1" fill="#FF9800" fill-opacity="0.3"/>
    
    <!-- 奶粉粉末 -->
    <circle cx="36" cy="24" r="0.8" fill="#FFF8E1"/>
    <circle cx="39" cy="26" r="0.6" fill="#FFF8E1"/>
    <circle cx="37" cy="28" r="0.7" fill="#FFF8E1"/>
    <circle cx="40" cy="30" r="0.5" fill="#FFF8E1"/>
    
    <!-- 冲调动作线 -->
    <path d="M34 22 Q30 18 26 22" stroke="#FF9800" stroke-dasharray="2,2" stroke-width="1"/>
    
    <!-- 标签 -->
    <rect x="35" y="26" width="6" height="3" fill="white" fill-opacity="0.8"/>
    <text x="38" y="28.5" font-family="Arial, sans-serif" font-size="3" text-anchor="middle" fill="#FF9800">奶粉</text>
  </g>
</svg>