<svg width="64" height="64" viewBox="0 0 64 64" fill="none" xmlns="http://www.w3.org/2000/svg">
  <!-- 奶瓶主体 -->
  <path d="M24 12C24 10.8954 24.8954 10 26 10H38C39.1046 10 40 10.8954 40 12V48C40 52.4183 36.4183 56 32 56C27.5817 56 24 52.4183 24 48V12Z" fill="#2196F3" fill-opacity="0.2" stroke="#2196F3" stroke-width="2"/>
  
  <!-- 奶瓶奶嘴 -->
  <ellipse cx="32" cy="8" rx="6" ry="4" fill="#FFB74D" stroke="#2196F3" stroke-width="2"/>
  
  <!-- 奶瓶盖 -->
  <rect x="28" y="6" width="8" height="4" rx="2" fill="#2196F3" fill-opacity="0.7"/>
  
  <!-- 牛奶液体 -->
  <path d="M26 16V46C26 49.3137 28.6863 52 32 52C35.3137 52 38 49.3137 38 46V16H26Z" fill="#FFFFFF" stroke="#E3F2FD" stroke-width="1"/>
  
  <!-- 液体波纹 -->
  <path d="M26 20C28 18 30 22 32 20C34 22 36 18 38 20" stroke="#2196F3" stroke-width="1" fill="none" stroke-opacity="0.5"/>
  <path d="M26 28C28 26 30 30 32 28C34 30 36 26 38 28" stroke="#2196F3" stroke-width="1" fill="none" stroke-opacity="0.3"/>
  
  <!-- 刻度线 -->
  <line x1="24" y1="20" x2="26" y2="20" stroke="#2196F3" stroke-width="1"/>
  <line x1="24" y1="28" x2="26" y2="28" stroke="#2196F3" stroke-width="1"/>
  <line x1="24" y1="36" x2="26" y2="36" stroke="#2196F3" stroke-width="1"/>
  <line x1="24" y1="44" x2="26" y2="44" stroke="#2196F3" stroke-width="1"/>
  
  <!-- 刻度标识 -->
  <text x="20" y="22" font-family="Arial" font-size="6" fill="#2196F3">240</text>
  <text x="20" y="30" font-family="Arial" font-size="6" fill="#2196F3">180</text>
  <text x="20" y="38" font-family="Arial" font-size="6" fill="#2196F3">120</text>
  <text x="20" y="46" font-family="Arial" font-size="6" fill="#2196F3">60</text>
  
  <!-- 温度图标 -->
  <circle cx="48" cy="16" r="6" fill="#FF9800" fill-opacity="0.2" stroke="#FF9800" stroke-width="1"/>
  <path d="M46 14L50 14M48 12L48 16M46 18L50 18" stroke="#FF9800" stroke-width="1"/>
</svg>