<svg width="64" height="64" viewBox="0 0 64 64" fill="none" xmlns="http://www.w3.org/2000/svg">
  <!-- 母亲轮廓 -->
  <path d="M20 12C20 8 24 4 32 4C40 4 44 8 44 12C44 16 42 20 38 22V28C38 32 36 36 32 38C28 36 26 32 26 28V22C22 20 20 16 20 12Z" fill="#4CAF50" fill-opacity="0.2" stroke="#4CAF50" stroke-width="2"/>
  
  <!-- 母亲头部 -->
  <circle cx="32" cy="14" r="8" fill="#FFF8E1" stroke="#4CAF50" stroke-width="2"/>
  
  <!-- 母亲头发 -->
  <path d="M26 10C28 6 30 6 32 6C34 6 36 6 38 10" stroke="#8D6E63" stroke-width="2" fill="none" stroke-linecap="round"/>
  
  <!-- 宝宝轮廓 -->
  <ellipse cx="28" cy="35" rx="8" ry="10" fill="#FFE0B2" stroke="#4CAF50" stroke-width="2"/>
  
  <!-- 宝宝头部 -->
  <circle cx="28" cy="30" r="5" fill="#FFF8E1" stroke="#4CAF50" stroke-width="1.5"/>
  
  <!-- 宝宝眼睛 -->
  <circle cx="26" cy="29" r="1" fill="#333"/>
  <circle cx="30" cy="29" r="1" fill="#333"/>
  
  <!-- 爱心装饰 -->
  <path d="M45 15C45 13 47 11 49 11C51 11 53 13 53 15C53 17 49 21 49 21C49 21 45 17 45 15Z" fill="#E91E63" fill-opacity="0.6"/>
  
  <!-- 温暖光晕 -->
  <circle cx="32" cy="25" r="20" fill="none" stroke="#4CAF50" stroke-width="1" stroke-opacity="0.2" stroke-dasharray="2 4"/>
</svg>