<svg width="48" height="48" viewBox="0 0 48 48" fill="none" xmlns="http://www.w3.org/2000/svg">
  <!-- 房子主体 -->
  <path d="M8 20L24 6L40 20V38C40 39.1046 39.1046 40 38 40H10C8.89543 40 8 39.1046 8 38V20Z" stroke="#999999" stroke-width="2" fill="none"/>
  
  <!-- 屋顶 -->
  <path d="M6 22L24 6L42 22" stroke="#999999" stroke-width="2" stroke-linecap="round" stroke-linejoin="round"/>
  
  <!-- 门 -->
  <path d="M19 40V30C19 28.8954 19.8954 28 21 28H27C28.1046 28 29 28.8954 29 30V40" stroke="#999999" stroke-width="2"/>
  
  <!-- 窗户 -->
  <rect x="14" y="22" width="6" height="6" stroke="#999999" stroke-width="2" fill="none"/>
  <rect x="28" y="22" width="6" height="6" stroke="#999999" stroke-width="2" fill="none"/>
  
  <!-- 窗户十字 -->
  <line x1="17" y1="22" x2="17" y2="28" stroke="#999999" stroke-width="1"/>
  <line x1="14" y1="25" x2="20" y2="25" stroke="#999999" stroke-width="1"/>
  <line x1="31" y1="22" x2="31" y2="28" stroke="#999999" stroke-width="1"/>
  <line x1="28" y1="25" x2="34" y2="25" stroke="#999999" stroke-width="1"/>
</svg>